<?xml version="1.0" encoding="utf-8"?>
<!-- Generator: Adobe Illustrator 17.0.0, SVG Export Plug-In . SVG Version: 6.00 Build 0)  -->
<!DOCTYPE svg PUBLIC "-//W3C//DTD SVG 1.1//EN" "http://www.w3.org/Graphics/SVG/1.1/DTD/svg11.dtd">
<svg version="1.1" id="Layer_1" xmlns="http://www.w3.org/2000/svg" xmlns:xlink="http://www.w3.org/1999/xlink" x="0px" y="0px"
	 width="16.211px" height="28.984px" viewBox="0 0 16.211 28.984" style="enable-background:new 0 0 16.211 28.984;"
	 xml:space="preserve">
<style type="text/css">
	.st0{fill:#43413E;}
</style>
<g>
	<path class="st0" d="M1.9,0c0.486,0,0.972,0.186,1.343,0.557l12.412,12.412c0.742,0.742,0.742,1.945,0,2.686
		c-0.742,0.742-1.944,0.742-2.686,0L0.557,3.243c-0.742-0.742-0.742-1.945,0-2.686C0.928,0.186,1.413,0,1.9,0z"/>
</g>
<g>
	<path class="st0" d="M14.312,12.757c0.486,0,0.972,0.186,1.343,0.557c0.742,0.742,0.742,1.945,0,2.686L3.243,28.411
		c-0.742,0.742-1.944,0.742-2.686,0c-0.742-0.742-0.742-1.945,0-2.686l12.412-12.412C13.34,12.942,13.826,12.757,14.312,12.757z"/>
</g>
</svg>
