<?xml version="1.0" encoding="utf-8"?>
<!-- Generator: Adobe Illustrator 17.0.0, SVG Export Plug-In . SVG Version: 6.00 Build 0)  -->
<!DOCTYPE svg PUBLIC "-//W3C//DTD SVG 1.1//EN" "http://www.w3.org/Graphics/SVG/1.1/DTD/svg11.dtd">
<svg version="1.1" id="Layer_1" xmlns="http://www.w3.org/2000/svg" xmlns:xlink="http://www.w3.org/1999/xlink" x="0px" y="0px"
	 width="16.211px" height="28.984px" viewBox="0 0 16.211 28.984" style="enable-background:new 0 0 16.211 28.984;"
	 xml:space="preserve">
<style type="text/css">
	.st0{fill:#43413E;}
</style>
<g>
	<path class="st0" d="M14.312,28.968c-0.486,0-0.972-0.186-1.343-0.557L0.557,15.999c-0.742-0.742-0.742-1.945,0-2.686
		c0.742-0.742,1.944-0.742,2.686,0l12.412,12.412c0.742,0.742,0.742,1.945,0,2.686C15.284,28.782,14.798,28.968,14.312,28.968z"/>
</g>
<g>
	<path class="st0" d="M1.9,16.211c-0.486,0-0.972-0.186-1.343-0.557c-0.742-0.742-0.742-1.945,0-2.686L12.969,0.557
		c0.742-0.742,1.944-0.742,2.686,0c0.742,0.742,0.742,1.945,0,2.686L3.243,15.655C2.872,16.026,2.386,16.211,1.9,16.211z"/>
</g>
</svg>
