<?xml version="1.0" encoding="utf-8"?>
<!-- Generator: Adobe Illustrator 17.0.0, SVG Export Plug-In . SVG Version: 6.00 Build 0)  -->
<!DOCTYPE svg PUBLIC "-//W3C//DTD SVG 1.1//EN" "http://www.w3.org/Graphics/SVG/1.1/DTD/svg11.dtd">
<svg version="1.1" id="Layer_1" xmlns="http://www.w3.org/2000/svg" xmlns:xlink="http://www.w3.org/1999/xlink" x="0px" y="0px"
	 width="165px" height="86.003px" viewBox="0 0 165 86.003" style="enable-background:new 0 0 165 86.003;" xml:space="preserve">
<style type="text/css">
	.st0{fill:#43413E;}
</style>
<g>
	<g>
		<path class="st0" d="M18.488,47.033h-3.606c-0.148,0-0.282,0.089-0.339,0.226L9.45,59.591L4.358,47.259
			c-0.057-0.136-0.191-0.226-0.339-0.226H0.367C0.164,47.033,0,47.196,0,47.401v17.126c0,0.202,0.164,0.366,0.367,0.366h2.705
			c0.203,0,0.367-0.165,0.367-0.366V53.946l4.473,10.723c0.057,0.135,0.19,0.224,0.338,0.224h2.311c0.148,0,0.282-0.089,0.338-0.226
			l4.473-10.741v10.6c0,0.202,0.165,0.366,0.368,0.366h2.75c0.203,0,0.367-0.165,0.367-0.366V47.401
			C18.855,47.196,18.691,47.033,18.488,47.033z M40.161,47.033h-2.728c-0.203,0-0.367,0.163-0.367,0.368v10.376
			c0,2.641-0.696,4.072-4.371,4.072c-3.599,0-4.303-1.494-4.303-4.072V47.401c0-0.204-0.164-0.368-0.367-0.368h-2.796
			c-0.203,0-0.367,0.163-0.367,0.368v10.745c0,3.487,0.929,7.048,7.809,7.048c6.924,0,7.857-3.561,7.857-7.048V47.401
			C40.529,47.196,40.364,47.033,40.161,47.033z M62.365,64.527V47.401c0-0.204-0.164-0.368-0.366-0.368h-2.728
			c-0.203,0-0.367,0.163-0.367,0.368v11.24l-8.352-11.459l-0.296-0.149h-3.028c-0.203,0-0.367,0.163-0.367,0.368v17.126
			c0,0.202,0.164,0.366,0.367,0.366h2.728c0.203,0,0.367-0.165,0.367-0.366V52.683l8.814,12.06l0.296,0.15h2.566
			C62.201,64.893,62.365,64.728,62.365,64.527z M77.193,65.149c3.841,0,5.642-1.306,6.896-2.584l0.106-0.261l-0.115-0.261
			l-1.988-1.894l-0.252-0.102l-0.251,0.099c-0.992,0.926-1.934,1.634-4.234,1.634c-3.871,0-5.596-1.791-5.596-5.806
			c0-3.944,1.77-5.782,5.574-5.782c1.695,0,2.959,0.477,4.096,1.542l0.251,0.099l0.258-0.105l2.033-2.012l0.11-0.26l-0.11-0.261
			c-1.69-1.664-3.791-2.439-6.614-2.439c-5.985,0-9.15,3.179-9.15,9.195C68.204,62.139,71.145,65.149,77.193,65.149z
			 M144.687,52.739c0-3.893-2.093-5.706-6.585-5.706h-7.835c-0.205,0-0.368,0.163-0.368,0.368v17.126
			c0,0.202,0.163,0.366,0.368,0.366h2.727c0.203,0,0.366-0.165,0.366-0.366v-5.875h3.929l3.476,6.057l0.318,0.185h3.004
			c0.133,0,0.253-0.07,0.318-0.183l0.001-0.365l-3.486-6.06C143.421,57.524,144.687,55.661,144.687,52.739z M138.034,55.355h-4.673
			v-5.046h4.626c2.353,0,3.146,0.642,3.146,2.544C141.133,54.7,140.323,55.355,138.034,55.355z M163.849,47.176
			c-0.091-0.163-0.261-0.266-0.449-0.266h-2.889c-0.176,0-0.338,0.088-0.433,0.237l-4.859,7.426l-4.839-7.426
			c-0.094-0.149-0.256-0.237-0.432-0.237h-3.029c-0.188,0-0.359,0.102-0.45,0.264c-0.091,0.165-0.085,0.363,0.017,0.524
			l6.784,10.478v6.202c0,0.283,0.23,0.514,0.514,0.514h2.773c0.282,0,0.513-0.231,0.513-0.514l-0.023-6.171l6.785-10.51
			C163.934,47.541,163.94,47.341,163.849,47.176z M86.664,16.189c-0.005,0.953-0.147,1.956,0.331,2.827l0.012,0.046
			c0.4,0.894,1.094,1.626,1.911,2.023c0.007,0.01,0.831,0.947,0.687,2.29c-0.063,0.535-0.133,1.085-0.202,1.634l-0.877,6.195
			l-0.032,0.785c0,0.345,0.056,0.691,0.171,1.035c0.359,0.92,1.229,1.513,2.213,1.513c1.114,0,2.091-0.789,2.335-1.908
			c0.029-0.153,0.046-0.311,0.046-0.474l0.012-0.051l0.008-0.121l-0.142-2.446l-0.739-8.364c-0.072-1.66-0.193-4.551-0.205-5.272
			l-0.08-5.452l0.018-0.25V0.62l-0.11-0.142c-0.325-0.084-0.948-0.163-1.28-0.163c-1.767,0-3.441,1.242-3.893,2.951
			c-0.307,1.158-0.161,2.346-0.16,3.523c0.001,1.002,0.032,2.004,0.044,3.006c0.003,0.207,0.015,0.416,0.012,0.623
			c-0.01,0.694-0.021,1.388-0.029,2.082C86.7,13.729,86.671,14.959,86.664,16.189z M91.012,25.32l0.06-0.06l0.061,0.065l0.259,6.508
			v0.112c0,0.28-0.227,0.505-0.505,0.505c-0.279,0-0.508-0.226-0.508-0.496L91.012,25.32z M90.091,2.662l0.131-0.032l0.024,0.125
			v5.753l0.258,9.476c0,0.525-0.429,0.954-0.956,0.954c-0.493,0-0.895-0.378-0.994-0.954c-0.001-0.67-0.002-1.339-0.002-2.009
			c-0.001-1.176-0.003-2.353-0.004-3.529c-0.002-2.138-0.002-4.275-0.002-6.413c0-0.218,0.028-0.457,0-0.674
			C88.534,5.271,88.268,3.176,90.091,2.662z M103.637,47.033h-2.796c-0.203,0-0.367,0.163-0.367,0.368v7.539h-8.328v-7.539
			c0-0.204-0.164-0.368-0.367-0.368h-2.797c-0.203,0-0.367,0.163-0.367,1.384v15.918c0,0-0.057,0.558,0.647,0.558h2.517
			c0.203,0,0.367-0.165,0.367-0.366v-6.08h8.328v6.08c0,0.202,0.164,0.366,0.367,0.366h2.529c0,0,0.001,0,0.002,0
			c0.041,0,0.632-0.009,0.632-0.535V48.417C104.004,47.196,103.84,47.033,103.637,47.033z M123.054,61.525h-9.019v-3.101h8.695
			c0.203,0,0.366-0.165,0.366-0.366V55.4c0-0.204-0.163-0.369-0.366-0.369h-8.695v-4.583h8.927c0.203,0,0.368-0.165,0.368-0.368
			v-2.679c0-0.204-0.165-0.368-0.368-0.368h-12.09c-0.202,0-0.366,0.163-0.366,1.384v15.804c0,0-0.059,0.672,0.623,0.672h11.925
			c0.205,0,0.366-0.165,0.366-0.366v-2.635C123.42,61.69,123.258,61.525,123.054,61.525z M73.59,13.001
			c-0.09,1.299-0.198,2.597-0.31,3.894c-0.124,1.428-0.256,2.855-0.391,4.282c-0.123,1.295-0.246,2.59-0.377,3.884
			c-0.087,0.866-0.179,1.732-0.262,2.599c-0.095,0.987-0.146,1.977-0.206,2.968c-0.056,0.941-0.18,1.963,0.437,2.757
			c0.532,0.685,1.307,1.149,2.193,1.152c0.78,0.003,1.479-0.373,2.01-0.923c0.63-0.653,0.695-1.516,0.661-2.373
			c-0.043-1.083-0.142-2.165-0.237-3.244c-0.056-0.63-0.115-1.259-0.174-1.888c-0.049-0.534-0.1-1.068-0.153-1.603
			c-0.249-2.519-0.49-5.039-0.71-7.561c-0.061-0.698-0.12-1.397-0.176-2.096c-0.012-0.157-0.205-1.846-0.14-1.866
			c1.571-0.479,2.638-1.921,2.771-3.524l0.014-0.332c0.004-2.304-0.042-4.608-0.077-6.911c-0.004-0.297-0.014-0.595-0.014-0.892
			c0-0.18-0.103-0.324-0.23-0.324h-1.251c-0.128,0-0.231,0.143-0.231,0.324l-0.153,8.393c-0.143,0.283-0.332,0.362-0.51,0.361
			l-0.207-0.067c-0.189-0.122-0.217-0.382-0.199-0.549l-0.002-0.153l-0.117-7.984c0-0.18-0.104-0.324-0.231-0.324h-1.253
			c-0.127,0-0.23,0.143-0.23,0.324l-0.151,8.393c-0.143,0.283-0.334,0.362-0.511,0.361c-0.179,0.001-0.368-0.078-0.511-0.361
			l-0.153-8.393c0-0.18-0.104-0.324-0.231-0.324h-1.251c-0.127,0-0.231,0.143-0.231,0.324L70.715,9.46l-0.008,0.068
			c0,0.452,0.129,0.868,0.326,1.232C71.52,11.85,72.452,12.679,73.59,13.001z M74.613,21.044l0.072-0.099l0.079,0.104l0.619,10.578
			l0.005,0.183c0.013,0.455-0.258,0.83-0.605,0.84s-0.642-0.349-0.654-0.788L74.613,21.044z M62.001,86.003h40v-1h-40V86.003z"/>
	</g>
</g>
</svg>
